<?xml version="1.0" encoding="UTF-8"?>
<svg xmlns="http://www.w3.org/2000/svg" xmlns:xlink="http://www.w3.org/1999/xlink" width="375pt" height="374.999991pt" viewBox="0 0 375 374.999991" version="1.2">
<defs>
<clipPath id="clip1">
  <path d="M 133 18.75 L 375 18.75 L 375 261 L 133 261 Z M 133 18.75 "/>
</clipPath>
<clipPath id="clip2">
  <path d="M 0 127 L 337 127 L 337 356.25 L 0 356.25 Z M 0 127 "/>
</clipPath>
</defs>
<g id="surface1">
<rect x="0" y="0" width="375" height="374.999991" style="fill:rgb(100%,100%,100%);fill-opacity:1;stroke:none;"/>
<rect x="0" y="0" width="375" height="374.999991" style="fill:rgb(100%,100%,100%);fill-opacity:1;stroke:none;"/>
<rect x="0" y="0" width="375" height="374.999991" style="fill:rgb(100%,100%,100%);fill-opacity:1;stroke:none;"/>
<g clip-path="url(#clip1)" clip-rule="nonzero">
<path style=" stroke:none;fill-rule:evenodd;fill:rgb(85.099792%,25.489807%,18.818665%);fill-opacity:1;" d="M 254.082031 260.617188 C 320.675781 260.617188 374.992188 206.304688 374.992188 139.707031 C 374.992188 73.113281 320.671875 18.796875 254.074219 18.796875 C 187.480469 18.796875 133.164062 73.113281 133.164062 139.707031 C 133.164062 206.304688 187.480469 260.617188 254.074219 260.617188 Z M 254.082031 260.617188 "/>
</g>
<g clip-path="url(#clip2)" clip-rule="nonzero">
<path style=" stroke:none;fill-rule:evenodd;fill:rgb(10.198975%,10.198975%,10.198975%);fill-opacity:1;" d="M 300.34375 212.207031 L 300.34375 199.835938 L 274.324219 199.835938 L 274 192.816406 C 272.097656 194.628906 269.722656 195.644531 267.011719 196.210938 L 265.683594 178.453125 L 269.328125 178.453125 L 268.933594 169.9375 L 299.460938 169.9375 L 313.03125 147.933594 C 318.277344 147.335938 323.382812 146.703125 328.296875 146.03125 L 336.453125 127.210938 C 245.5625 139.519531 90.890625 139.519531 -0.0117188 127.210938 L 8.144531 146.03125 C 13.0625 146.703125 18.164062 147.335938 23.410156 147.933594 L 36.980469 169.9375 L 67.507812 169.9375 L 67.113281 178.453125 L 70.757812 178.453125 L 69.429688 196.210938 C 66.722656 195.644531 64.347656 194.628906 62.445312 192.816406 L 62.117188 199.835938 L 36.097656 199.835938 L 36.097656 212.207031 L 68.230469 212.207031 L 60.597656 314.160156 L 58.816406 314.160156 L 54.257812 356.1875 L 88.222656 356.1875 L 88.738281 314.160156 L 86.636719 314.160156 L 91.386719 212.207031 L 245.050781 212.207031 L 249.796875 314.160156 L 247.695312 314.160156 L 248.210938 356.1875 L 282.175781 356.1875 L 277.617188 314.160156 L 275.835938 314.160156 L 268.203125 212.207031 L 300.3125 212.207031 L 300.3125 212.203125 Z M 97.492188 169.933594 L 159.875 169.933594 L 159.875 199.835938 L 100.097656 199.835938 L 100.425781 192.816406 C 98.109375 194.84375 95.296875 195.871094 92.132812 196.394531 L 92.96875 178.453125 L 97.09375 178.453125 Z M 238.96875 169.933594 L 239.363281 178.453125 L 243.488281 178.453125 L 244.324219 196.394531 C 241.164062 195.871094 238.347656 194.839844 236.035156 192.816406 L 236.359375 199.835938 L 176.582031 199.835938 L 176.582031 169.933594 Z M 238.96875 169.933594 "/>
</g>
</g>
</svg>
